<?xml version="1.0" standalone="no"?>
<!DOCTYPE svg PUBLIC "-//W3C//DTD SVG 20010904//EN"
 "http://www.w3.org/TR/2001/REC-SVG-20010904/DTD/svg10.dtd">
<svg version="1.0" xmlns="http://www.w3.org/2000/svg"
 width="700.000000pt" height="700.000000pt" viewBox="0 0 700.000000 700.000000"
 preserveAspectRatio="xMidYMid meet">
<metadata>
Created by potrace 1.14, written by Peter Selinger 2001-2017
</metadata>
<g transform="translate(0.000000,700.000000) scale(0.100000,-0.100000)"
fill="#000000" stroke="none">
<path d="M4415 6985 c-312 -201 -651 -433 -740 -506 -181 -149 -303 -263 -422
-392 -74 -80 -222 -278 -217 -291 2 -6 6 -33 8 -61 10 -100 44 -308 71 -425 2
-8 11 -49 20 -90 25 -112 76 -294 84 -303 4 -4 48 -1 97 7 49 8 98 15 109 15
162 1 229 0 273 -7 36 -6 52 -6 53 2 0 6 2 18 4 26 11 46 167 733 176 773 10
43 14 48 33 44 11 -3 68 -15 126 -28 58 -12 109 -25 113 -29 4 -4 -8 -76 -27
-161 -19 -85 -37 -165 -40 -179 -3 -14 -26 -115 -51 -225 -25 -110 -47 -209
-50 -220 -2 -11 -7 -34 -10 -50 -6 -30 -5 -31 52 -55 106 -43 329 -182 341
-212 8 -19 30 -2 142 110 157 156 298 288 432 405 55 49 66 62 63 85 -2 15 -6
58 -10 96 -33 389 -158 814 -365 1241 -67 139 -219 417 -238 437 -4 3 -16 0
-27 -7z"/>
<path d="M961 6062 l-24 -4 6 -216 c4 -120 9 -237 11 -262 10 -119 31 -299 42
-365 60 -353 143 -646 253 -890 10 -22 21 -49 25 -60 4 -15 69 -51 224 -127
119 -59 258 -123 307 -143 50 -21 104 -43 120 -50 17 -7 77 -31 135 -53 93
-35 106 -38 111 -24 4 10 21 62 39 117 39 121 112 267 185 368 l53 75 -265
258 c-146 143 -287 280 -313 306 l-49 47 92 95 c51 53 97 96 102 96 6 0 149
-137 319 -304 l310 -303 55 42 c71 52 143 97 204 126 26 13 46 28 43 34 -9 25
-78 301 -100 406 -34 154 -39 183 -51 279 -4 30 -11 74 -16 97 -5 24 -9 46 -8
50 6 40 -4 54 -58 82 -200 100 -583 222 -838 266 -129 22 -205 32 -395 51 -72
7 -482 12 -519 6z"/>
<path d="M5254 4992 c-134 -111 -249 -218 -441 -407 l-183 -180 50 -72 c54
-76 138 -240 160 -310 7 -24 17 -43 23 -43 8 0 516 150 747 221 113 35 116 35
123 7 2 -13 19 -70 36 -127 24 -78 29 -106 20 -112 -10 -6 -591 -183 -794
-241 -38 -11 -73 -25 -76 -30 -3 -5 -3 -29 1 -53 9 -57 -2 -290 -15 -335 -9
-29 -16 -82 -12 -86 2 -3 17 -7 33 -9 34 -5 51 -9 369 -76 291 -62 247 -52
387 -84 133 -30 119 -33 238 51 295 207 578 506 804 847 53 80 96 147 96 150
0 3 17 34 38 68 21 35 62 110 90 166 l52 102 -88 54 c-231 143 -478 270 -694
356 -112 45 -293 107 -336 116 -9 2 -53 12 -97 23 -83 22 -226 48 -305 56
-160 18 -136 23 -226 -52z"/>
<path d="M3468 4665 c-2 -2 -30 -5 -63 -8 -65 -6 -188 -32 -212 -46 -12 -6
-10 -10 13 -18 48 -17 118 -87 149 -148 71 -140 8 -308 -143 -382 -144 -71
-306 -5 -384 156 -15 32 -22 65 -22 112 l-1 67 -30 -27 c-118 -102 -246 -299
-303 -466 -48 -144 -69 -365 -48 -510 22 -145 78 -303 153 -428 2 -4 14 5 26
20 19 24 38 42 69 64 4 3 -12 27 -37 54 -124 132 -96 379 53 477 113 75 265
72 368 -7 l33 -25 7 23 c36 113 157 187 297 181 170 -7 271 -115 271 -289 0
-63 -5 -89 -21 -121 -55 -105 -137 -156 -250 -157 -79 0 -132 15 -189 54 l-41
28 -17 -54 c-23 -75 -70 -129 -143 -166 l-62 -31 26 -37 c15 -20 28 -37 28
-38 1 -2 28 7 61 18 108 38 213 9 305 -85 110 -110 117 -267 18 -380 -22 -25
-37 -46 -32 -47 4 0 17 -3 28 -5 11 -3 74 -7 140 -8 94 -3 144 1 230 19 61 13
123 28 139 34 l30 12 -51 29 c-87 50 -151 150 -156 247 -5 82 18 143 77 209
48 54 49 58 47 110 -7 158 81 310 219 377 69 34 89 38 165 38 134 0 280 -93
357 -228 27 -46 27 -47 37 -22 5 14 12 43 15 65 4 21 9 47 12 57 12 37 11 237
-1 323 -50 359 -278 677 -603 839 -154 76 -302 113 -484 120 -42 1 -79 1 -80
0z m572 -453 c89 -36 150 -181 120 -287 -13 -48 -63 -105 -112 -131 -49 -25
-140 -30 -193 -10 -82 32 -135 120 -135 224 0 162 165 267 320 204z"/>
<path d="M1129 3909 c-240 -177 -486 -430 -711 -729 -86 -115 -405 -589 -410
-610 -4 -13 245 -150 487 -269 492 -241 903 -357 1283 -363 70 -1 70 -1 154
57 109 77 345 262 388 305 3 3 45 41 94 85 49 44 105 95 124 112 39 37 41 31
-34 113 -79 86 -183 231 -204 287 -10 25 34 35 -395 -94 -154 -46 -284 -85
-290 -86 -5 -2 -15 -6 -20 -9 -6 -4 -16 -4 -21 0 -9 6 -84 236 -84 256 0 2 15
9 33 15 33 10 57 17 422 126 121 36 226 67 232 70 9 3 10 11 4 29 -6 13 -12
41 -16 63 -3 21 -7 50 -10 63 -8 41 -16 124 -17 183 l-2 56 -75 27 c-232 83
-502 199 -716 308 -66 33 -123 62 -126 64 -3 1 -44 -25 -90 -59z"/>
<path d="M4766 2903 c-17 -30 -54 -92 -83 -136 l-54 -80 23 -24 c28 -30 173
-173 448 -442 l205 -200 -98 -98 -97 -99 -129 126 c-70 69 -221 216 -334 328
-114 111 -211 202 -215 202 -5 0 -27 -14 -48 -31 -52 -42 -158 -110 -216 -139
-52 -26 -52 -26 -38 -85 24 -97 67 -303 76 -359 3 -22 7 -43 9 -46 2 -3 7 -33
10 -65 4 -33 9 -62 10 -65 2 -3 6 -34 10 -70 4 -36 9 -73 11 -83 3 -18 15
-144 19 -217 2 -19 3 -41 4 -47 3 -37 485 -214 676 -249 12 -2 65 -13 116 -23
52 -11 121 -23 154 -26 33 -4 68 -9 77 -10 9 -2 45 -6 80 -10 35 -3 81 -8 103
-11 22 -2 160 -6 307 -8 l266 -4 5 23 c6 34 1 489 -7 570 -12 117 -36 305 -51
385 -21 116 -25 131 -41 195 -9 33 -17 69 -20 80 -7 36 -75 249 -89 280 -7 17
-25 62 -40 100 -24 60 -81 183 -90 193 -3 3 -52 16 -105 27 -8 2 -87 19 -175
38 -88 20 -263 57 -390 82 -126 25 -237 48 -245 50 -10 3 -25 -14 -44 -52z"/>
<path d="M2735 2298 c-36 -33 -76 -71 -89 -82 -93 -82 -144 -127 -162 -143
-125 -105 -290 -232 -416 -320 -98 -68 -107 -76 -103 -101 3 -15 10 -54 16
-87 6 -33 13 -73 15 -90 13 -74 79 -321 121 -449 85 -261 236 -618 385 -908
l60 -117 120 81 c220 149 563 412 706 542 19 17 46 42 61 55 110 99 321 315
410 421 154 183 143 163 136 250 -3 41 -7 86 -10 100 -2 14 -7 50 -10 80 -3
30 -8 66 -10 80 -2 14 -7 43 -10 65 -3 23 -7 52 -10 65 -3 14 -10 52 -16 85
-11 64 -79 358 -84 363 -1 1 -22 -2 -46 -7 -70 -16 -166 -24 -283 -25 l-110
-1 -22 -95 c-12 -52 -22 -97 -23 -100 0 -3 -7 -34 -15 -70 -8 -36 -38 -166
-66 -290 -83 -369 -73 -335 -101 -332 -54 5 -249 54 -244 61 2 4 6 21 9 37 3
16 17 81 32 144 14 63 34 153 45 200 10 47 39 175 64 285 50 220 50 225 33
225 -23 0 -168 60 -244 101 l-74 39 -65 -62z"/>
</g>
</svg>
