<svg width="40" height="40" viewBox="0 0 40 40" fill="none" xmlns="http://www.w3.org/2000/svg">
<path d="M31.25 3.75H8.75C8.08696 3.75 7.45107 4.01339 6.98223 4.48223C6.51339 4.95107 6.25 5.58696 6.25 6.25V33.75C6.25 34.413 6.51339 35.0489 6.98223 35.5178C7.45107 35.9866 8.08696 36.25 8.75 36.25H31.25C31.913 36.25 32.5489 35.9866 33.0178 35.5178C33.4866 35.0489 33.75 34.413 33.75 33.75V6.25C33.75 5.58696 33.4866 4.95107 33.0178 4.48223C32.5489 4.01339 31.913 3.75 31.25 3.75ZM13.75 31.25C13.3792 31.25 13.0166 31.14 12.7083 30.934C12.4 30.728 12.1596 30.4351 12.0177 30.0925C11.8758 29.7499 11.8387 29.3729 11.911 29.0092C11.9834 28.6455 12.162 28.3114 12.4242 28.0492C12.6864 27.787 13.0205 27.6084 13.3842 27.536C13.7479 27.4637 14.1249 27.5008 14.4675 27.6427C14.8101 27.7846 15.103 28.025 15.309 28.3333C15.515 28.6416 15.625 29.0042 15.625 29.375C15.625 29.8723 15.4275 30.3492 15.0758 30.7008C14.7242 31.0525 14.2473 31.25 13.75 31.25ZM13.75 25C13.3792 25 13.0166 24.89 12.7083 24.684C12.4 24.478 12.1596 24.1851 12.0177 23.8425C11.8758 23.4999 11.8387 23.1229 11.911 22.7592C11.9834 22.3955 12.162 22.0614 12.4242 21.7992C12.6864 21.537 13.0205 21.3584 13.3842 21.286C13.7479 21.2137 14.1249 21.2508 14.4675 21.3927C14.8101 21.5346 15.103 21.775 15.309 22.0833C15.515 22.3916 15.625 22.7542 15.625 23.125C15.625 23.6223 15.4275 24.0992 15.0758 24.4508C14.7242 24.8025 14.2473 25 13.75 25ZM20 31.25C19.6292 31.25 19.2666 31.14 18.9583 30.934C18.65 30.728 18.4096 30.4351 18.2677 30.0925C18.1258 29.7499 18.0887 29.3729 18.161 29.0092C18.2334 28.6455 18.412 28.3114 18.6742 28.0492C18.9364 27.787 19.2705 27.6084 19.6342 27.536C19.9979 27.4637 20.3749 27.5008 20.7175 27.6427C21.0601 27.7846 21.353 28.025 21.559 28.3333C21.765 28.6416 21.875 29.0042 21.875 29.375C21.875 29.8723 21.6775 30.3492 21.3258 30.7008C20.9742 31.0525 20.4973 31.25 20 31.25ZM20 25C19.6292 25 19.2666 24.89 18.9583 24.684C18.65 24.478 18.4096 24.1851 18.2677 23.8425C18.1258 23.4999 18.0887 23.1229 18.161 22.7592C18.2334 22.3955 18.412 22.0614 18.6742 21.7992C18.9364 21.537 19.2705 21.3584 19.6342 21.286C19.9979 21.2137 20.3749 21.2508 20.7175 21.3927C21.0601 21.5346 21.353 21.775 21.559 22.0833C21.765 22.3916 21.875 22.7542 21.875 23.125C21.875 23.6223 21.6775 24.0992 21.3258 24.4508C20.9742 24.8025 20.4973 25 20 25ZM26.25 31.25C25.8792 31.25 25.5166 31.14 25.2083 30.934C24.9 30.728 24.6596 30.4351 24.5177 30.0925C24.3758 29.7499 24.3387 29.3729 24.411 29.0092C24.4834 28.6455 24.662 28.3114 24.9242 28.0492C25.1864 27.787 25.5205 27.6084 25.8842 27.536C26.2479 27.4637 26.6249 27.5008 26.9675 27.6427C27.3101 27.7846 27.603 28.025 27.809 28.3333C28.015 28.6416 28.125 29.0042 28.125 29.375C28.125 29.8723 27.9275 30.3492 27.5758 30.7008C27.2242 31.0525 26.7473 31.25 26.25 31.25ZM26.25 25C25.8792 25 25.5166 24.89 25.2083 24.684C24.9 24.478 24.6596 24.1851 24.5177 23.8425C24.3758 23.4999 24.3387 23.1229 24.411 22.7592C24.4834 22.3955 24.662 22.0614 24.9242 21.7992C25.1864 21.537 25.5205 21.3584 25.8842 21.286C26.2479 21.2137 26.6249 21.2508 26.9675 21.3927C27.3101 21.5346 27.603 21.775 27.809 22.0833C28.015 22.3916 28.125 22.7542 28.125 23.125C28.125 23.6223 27.9275 24.0992 27.5758 24.4508C27.2242 24.8025 26.7473 25 26.25 25ZM28.75 16.25C28.75 16.5815 28.6183 16.8995 28.3839 17.1339C28.1495 17.3683 27.8315 17.5 27.5 17.5H12.5C12.1685 17.5 11.8505 17.3683 11.6161 17.1339C11.3817 16.8995 11.25 16.5815 11.25 16.25V10C11.25 9.66848 11.3817 9.35054 11.6161 9.11612C11.8505 8.8817 12.1685 8.75 12.5 8.75H27.5C27.8315 8.75 28.1495 8.8817 28.3839 9.11612C28.6183 9.35054 28.75 9.66848 28.75 10V16.25Z" fill="white"/>
</svg>
