<svg width="40" height="40" viewBox="0 0 40 40" fill="none" xmlns="http://www.w3.org/2000/svg">
<path d="M25.3589 0C22.3872 1.9176 19.3674 3.77882 17.3483 6.8078C17.5043 8.51618 17.8823 10.2308 18.3876 11.96C18.9738 11.8251 19.5734 11.7572 20.1749 11.7574C20.5984 11.7574 21.0143 11.7911 21.4202 11.8552L22.5286 6.95912L24.0738 7.30873L22.9534 12.2584C23.8318 12.5872 24.6453 13.0684 25.3565 13.6799C26.4563 12.5454 27.6231 11.4291 28.8904 10.3526C28.681 6.57908 27.3026 3.19548 25.3587 0H25.3589ZM6.42563 5.33061C6.07003 5.33321 5.71443 5.34265 5.35883 5.35892C5.35662 8.84001 5.74998 12.3213 7.3595 15.8025L7.38323 15.759C9.03065 16.6571 10.7009 17.383 12.4005 17.9908C12.6731 16.7678 13.2279 15.6497 13.9926 14.7086L10.4053 11.2015L11.5128 10.0685L15.1078 13.5832C15.6398 13.1432 16.2266 12.774 16.8535 12.4847C16.3705 10.7871 15.9959 9.0773 15.8096 7.3468C12.6816 5.84375 9.55362 5.30882 6.42554 5.33061H6.42563ZM30.4747 11.0942C29.0234 12.2845 27.7027 13.5442 26.4609 14.8386C27.0317 15.5708 27.4701 16.3973 27.7561 17.2807L32.709 15.7996L33.1628 17.3174L28.0901 18.8342C28.1937 19.7531 28.136 20.6831 27.9197 21.5822C29.6241 21.9145 31.3646 22.2748 33.1487 22.7027C36.0887 20.859 38.3214 18.1062 40 14.6409C36.8623 12.624 33.7454 11.2958 30.4748 11.0942L30.4747 11.0942ZM20.1749 13.3418C19.4912 13.3415 18.812 13.4507 18.1629 13.6653C18.3841 13.7519 18.605 13.8944 18.8161 14.1037C20.433 15.7075 18.0135 18.03 16.5064 16.4132C16.0401 15.9132 15.9293 15.3481 16.0455 14.8535C14.6675 16.0223 13.7944 17.7667 13.7944 19.7221C13.7944 20.9662 14.1486 22.1244 14.7601 23.1041C14.8894 22.8502 15.0969 22.639 15.3474 22.5117C14.8953 22.2251 14.5773 21.7195 14.6026 20.9993C14.6667 19.1707 16.7277 18.7199 17.6462 19.7497C17.7938 19.0968 18.3342 18.5384 19.2859 18.5318C21.563 18.5227 21.4945 21.8758 19.2855 21.7982C18.7518 21.7795 18.3443 21.5791 18.0634 21.287C17.9611 22.1152 17.4019 22.5958 16.7615 22.7417C16.7857 22.7633 16.8099 22.7837 16.8338 22.8073C16.9715 22.944 17.07 23.0873 17.1383 23.2326C17.7064 22.8592 18.4959 22.8367 19.1813 23.5168C20.0516 24.3798 19.752 25.4502 19.0554 26.0036C19.4249 26.0692 19.7993 26.1024 20.1745 26.1028C20.9544 26.1028 21.7004 25.9636 22.3903 25.7094C22.1397 25.6285 21.8929 25.4746 21.6667 25.232C20.7993 24.3014 21.161 23.1468 21.9317 22.6392C21.6155 21.2487 22.7505 19.8985 24.0911 19.9205C24.6159 19.929 25.1717 20.1477 25.6844 20.6564C25.9773 20.947 26.1722 21.2549 26.2853 21.5651C26.4644 20.9672 26.5553 20.3463 26.5551 19.7222C26.5551 16.1889 23.7078 13.3417 20.1746 13.3417L20.1749 13.3418ZM22.5572 15.8062C23.0701 15.803 23.5809 16.105 23.7724 16.8084C24.2435 18.5399 21.6778 19.1715 21.2863 17.4745C21.0538 16.467 21.8076 15.8108 22.557 15.8062H22.5572ZM6.92995 17.3126C3.70938 19.5395 1.87978 22.462 0 25.3591C3.37655 27.2556 6.78956 28.9711 10.5535 28.9321C12.0603 27.9194 13.4276 26.7668 14.7213 25.52C14.0499 24.8884 13.4924 24.1457 13.0733 23.3247L8.9524 24.5569L8.49852 23.0389L12.4973 21.8431C12.3061 21.1523 12.2094 20.4388 12.2098 19.7221C12.2098 19.6844 12.2106 19.647 12.2112 19.6093C10.4326 18.9869 8.67384 18.2409 6.92978 17.3125L6.92995 17.3126ZM27.3859 23.1006C27.1265 23.652 26.8047 24.1718 26.4268 24.6498L30.3069 28.4431L29.1994 29.5761L25.3268 25.7899C24.7788 26.2562 24.1704 26.6465 23.518 26.95C24.0037 28.8587 24.3491 30.8076 24.4536 32.8066C27.6634 34.3482 31.0893 34.8088 34.6411 34.6411C34.8028 30.929 34.3362 27.4056 32.7148 24.2285C30.9068 23.7975 29.1327 23.4359 27.386 23.1006H27.3859ZM16.0093 26.5072C14.5454 27.9208 12.9752 29.2369 11.2115 30.3959C11.6334 33.5972 12.9764 36.7985 14.6412 40C17.7854 37.8986 20.674 35.5928 22.8609 32.7253C22.7518 30.958 22.4295 29.2127 21.9802 27.4804C21.1573 27.6718 20.3091 27.7309 19.4676 27.6554L18.302 32.8038L16.757 32.454L17.9105 27.3582C17.2421 27.1593 16.6028 26.8731 16.0092 26.5071L16.0093 26.5072Z" fill="white"/>
</svg>
