<svg width="28" height="28" viewBox="0 0 28 28" fill="none" xmlns="http://www.w3.org/2000/svg">
<path d="M14.6888 12.474C14.6576 12.3019 14.5631 12.1476 14.424 12.0417C14.2848 11.9358 14.1109 11.8858 13.9367 11.9016C13.7625 11.9174 13.6006 11.9978 13.4827 12.1271C13.3648 12.2564 13.2997 12.4251 13.3 12.6V18.9028L13.3112 19.0288C13.3424 19.2009 13.4368 19.3551 13.576 19.4611C13.7152 19.567 13.889 19.617 14.0632 19.6012C14.2374 19.5854 14.3994 19.505 14.5173 19.3757C14.6351 19.2464 14.7003 19.0777 14.7 18.9028V12.6L14.6888 12.474ZM15.1186 9.44999C15.1186 9.17151 15.008 8.90444 14.8111 8.70753C14.6141 8.51061 14.3471 8.39999 14.0686 8.39999C13.7901 8.39999 13.523 8.51061 13.3261 8.70753C13.1292 8.90444 13.0186 9.17151 13.0186 9.44999C13.0186 9.72847 13.1292 9.99554 13.3261 10.1925C13.523 10.3894 13.7901 10.5 14.0686 10.5C14.3471 10.5 14.6141 10.3894 14.8111 10.1925C15.008 9.99554 15.1186 9.72847 15.1186 9.44999ZM25.2 14C25.2 11.0296 24.02 8.1808 21.9196 6.08039C19.8192 3.97998 16.9704 2.79999 14 2.79999C11.0296 2.79999 8.1808 3.97998 6.08039 6.08039C3.97998 8.1808 2.79999 11.0296 2.79999 14C2.79999 16.9704 3.97998 19.8192 6.08039 21.9196C8.1808 24.02 11.0296 25.2 14 25.2C16.9704 25.2 19.8192 24.02 21.9196 21.9196C24.02 19.8192 25.2 16.9704 25.2 14ZM4.19999 14C4.19999 12.713 4.45347 11.4387 4.94597 10.2497C5.43846 9.0607 6.16033 7.98036 7.07034 7.07034C7.98036 6.16033 9.0607 5.43846 10.2497 4.94597C11.4387 4.45347 12.713 4.19999 14 4.19999C15.2869 4.19999 16.5613 4.45347 17.7503 4.94597C18.9393 5.43846 20.0196 6.16033 20.9296 7.07034C21.8396 7.98036 22.5615 9.0607 23.054 10.2497C23.5465 11.4387 23.8 12.713 23.8 14C23.8 16.5991 22.7675 19.0918 20.9296 20.9296C19.0918 22.7675 16.5991 23.8 14 23.8C11.4009 23.8 8.9082 22.7675 7.07034 20.9296C5.23248 19.0918 4.19999 16.5991 4.19999 14Z" fill="white"/>
</svg>
